<svg width="124" height="96" viewBox="0 0 124 96" fill="none" xmlns="http://www.w3.org/2000/svg">
<path d="M9.0001 33.9998C2.99986 32.4998 -1.8998 22.6997 2.5002 17.4997C8.0002 10.9998 11.8097 9.30366 19.3101 10.3751C25.3101 11.2323 33.6325 6.77798 37.0001 4.99973C41.4129 2.66957 44.8251 6.68072 47.1583 8.34736C34.2481 11.0511 27.8944 18.7564 23.0008 23.4998C23.0953 27.0703 25.3258 27.8138 23.5008 33.2212C17.6203 32.7481 15.5001 31.9998 9.0001 33.9998Z" fill="#DE0000"/>
<path d="M26.0694 24.4342C26.0694 24.4342 26.9481 26.2594 27.4212 28.4224C32.9217 25.4224 38.0006 23.9998 44.5006 25.4998C48.5002 21.4998 50.1356 18.175 57.6352 17.6749C53.2416 10.4425 45.4614 11.701 41.8861 13.0113C36.9867 14.8067 32.761 19.8379 26.0694 24.4342Z" fill="#DE0000"/>
<path d="M40.5007 55.9997C42.834 51.9997 43.0002 50.4998 50.5007 43.4998C54.9623 39.3358 61.0007 34.9997 70.5006 24.9998C69.834 22.1665 66.6007 17.4997 61.0007 17.4997C61.0007 14.4998 58.0518 11.1854 51.5518 8.68532C59.3851 4.01866 75.4007 -3.40027 81.0007 4.99973C86.6007 13.3997 81.0007 23.8331 77.5007 27.9998C64.9008 42.9997 47.3007 55.9997 40.5007 55.9997Z" fill="#DE0000"/>
<path d="M48.5002 26.9998C53.9852 20.3786 62.0006 17.5505 66.5006 24.9998C63.0006 27.9998 60.3917 29.4509 56.8916 32.9509C53.85 29.1657 48.5002 26.9998 48.5002 26.9998Z" fill="#DE0000"/>
<path d="M44.5006 44.4998C48.5002 39.4998 54.5935 35.3842 54.5935 35.3842C50.4268 31.8842 46.3472 27.6111 39.0002 27.9998C31.6532 28.3886 28.5006 30.9998 26.5002 34.4998C26.5002 34.4998 39.0002 38.9998 44.5006 44.4998Z" fill="#DE0000"/>
<path d="M39.4998 90.9997C34.4998 83.3331 28.9007 63.7999 42.5007 46.9998C29.5008 38.4998 23.0008 35.9998 12.4998 35.9998C18.0006 46.9998 15.7998 54.6998 16.9998 61.4998C18.1998 68.2998 24.1673 77.4998 29.0006 82.9998C19.001 74.9998 13.5006 72.4998 12.4998 46.9998C8.0002 47.9998 6.50064 49.4998 4.9997 51.4998L5.50064 57.9998C3.83397 59.1665 0.06246 62.127 0.999704 66.4998C2.50004 73.4998 16.9993 90.9997 39.4998 90.9997Z" fill="#DE0000"/>
<path d="M82.4998 25.9997C71.5002 39.9998 58.0002 54.9998 39.4998 59.4997C35.5002 68.4998 37.0002 88.4998 45.4998 92.4997C53.2305 96.1378 62.0002 94.6002 68.0007 90.9997C75.5002 86.4998 94.5002 57.4998 82.4998 25.9997Z" fill="#DE0000"/>
<path d="M78.5007 84.9997C92.5002 61.4998 90.5002 40.8331 88.5002 32.9998C92.0002 32.6665 98.6639 33.4294 102.001 34.9997C110.5 38.9998 112.5 44.4998 114.5 47.9998C116.1 50.7998 121.001 54.4997 122.501 55.4997C118.667 55.8331 111.04 57.4603 109.001 59.4997C106 62.4998 101.367 77.9751 96.0007 81.9997C92.0002 84.9997 86.5007 86.4997 78.5007 84.9997Z" fill="#DE0000"/>
<path d="M9.0001 33.9998C2.99986 32.4998 -1.8998 22.6997 2.5002 17.4997C8.0002 10.9998 11.8097 9.30366 19.3101 10.3751C25.3101 11.2323 33.6325 6.77798 37.0001 4.99973C41.4129 2.66957 44.8251 6.68072 47.1583 8.34736C34.2481 11.0511 27.8944 18.7564 23.0008 23.4998C23.0953 27.0703 25.3258 27.8138 23.5008 33.2212C17.6203 32.7481 15.5001 31.9998 9.0001 33.9998Z" stroke="#3C3C3C"/>
<path d="M26.0694 24.4342C26.0694 24.4342 26.9481 26.2594 27.4212 28.4224C32.9217 25.4224 38.0006 23.9998 44.5006 25.4998C48.5002 21.4998 50.1356 18.175 57.6352 17.6749C53.2416 10.4425 45.4614 11.701 41.8861 13.0113C36.9867 14.8067 32.761 19.8379 26.0694 24.4342Z" stroke="#3C3C3C"/>
<path d="M40.5007 55.9997C42.834 51.9997 43.0002 50.4998 50.5007 43.4998C54.9623 39.3358 61.0007 34.9997 70.5006 24.9998C69.834 22.1665 66.6007 17.4997 61.0007 17.4997C61.0007 14.4998 58.0518 11.1854 51.5518 8.68532C59.3851 4.01866 75.4007 -3.40027 81.0007 4.99973C86.6007 13.3997 81.0007 23.8331 77.5007 27.9998C64.9008 42.9997 47.3007 55.9997 40.5007 55.9997Z" stroke="#3C3C3C"/>
<path d="M48.5002 26.9998C53.9852 20.3786 62.0006 17.5505 66.5006 24.9998C63.0006 27.9998 60.3917 29.4509 56.8916 32.9509C53.85 29.1657 48.5002 26.9998 48.5002 26.9998Z" stroke="#3C3C3C"/>
<path d="M44.5006 44.4998C48.5002 39.4998 54.5935 35.3842 54.5935 35.3842C50.4268 31.8842 46.3472 27.6111 39.0002 27.9998C31.6532 28.3886 28.5006 30.9998 26.5002 34.4998C26.5002 34.4998 39.0002 38.9998 44.5006 44.4998Z" stroke="#3C3C3C"/>
<path d="M39.4998 90.9997C34.4998 83.3331 28.9007 63.7999 42.5007 46.9998C29.5008 38.4998 23.0008 35.9998 12.4998 35.9998C18.0006 46.9998 15.7998 54.6998 16.9998 61.4998C18.1998 68.2998 24.1673 77.4998 29.0006 82.9998C19.001 74.9998 13.5006 72.4998 12.4998 46.9998C8.0002 47.9998 6.50064 49.4998 4.9997 51.4998L5.50064 57.9998C3.83397 59.1665 0.06246 62.127 0.999704 66.4998C2.50004 73.4998 16.9993 90.9997 39.4998 90.9997Z" stroke="#3C3C3C"/>
<path d="M82.4998 25.9997C71.5002 39.9998 58.0002 54.9998 39.4998 59.4997C35.5002 68.4998 37.0002 88.4998 45.4998 92.4997C53.2305 96.1378 62.0002 94.6002 68.0007 90.9997C75.5002 86.4998 94.5002 57.4998 82.4998 25.9997Z" stroke="#3C3C3C"/>
<path d="M78.5007 84.9997C92.5002 61.4998 90.5002 40.8331 88.5002 32.9998C92.0002 32.6665 98.6639 33.4294 102.001 34.9997C110.5 38.9998 112.5 44.4998 114.5 47.9998C116.1 50.7998 121.001 54.4997 122.501 55.4997C118.667 55.8331 111.04 57.4603 109.001 59.4997C106 62.4998 101.367 77.9751 96.0007 81.9997C92.0002 84.9997 86.5007 86.4997 78.5007 84.9997Z" stroke="#3C3C3C"/>
</svg>
