<svg width="106" height="95" viewBox="0 0 106 95" fill="none" xmlns="http://www.w3.org/2000/svg">
<path d="M8.69126 33.3145C2.69102 31.8145 -2.20864 22.0144 2.19136 16.8144C7.69136 10.3145 11.5009 8.61832 19.0013 9.68976C25.0013 10.547 33.3237 6.09264 36.6913 4.31439C41.1041 1.98423 44.5163 5.99538 46.8495 7.66202C33.9393 10.3658 27.5856 18.0711 22.692 22.8145C22.7865 26.385 25.017 27.1285 23.192 32.5359C17.3115 32.0628 15.1913 31.3145 8.69126 33.3145Z" fill="#3C3C3C"/>
<path d="M25.7605 23.7491C25.7605 23.7491 26.6392 25.5743 27.1123 27.7373C32.6128 24.7373 37.6917 23.3147 44.1917 24.8147C48.1913 20.8147 49.8267 17.4899 57.3263 16.9898C52.9327 9.75744 45.1525 11.0159 41.5772 12.3262C36.6778 14.1216 32.4521 19.1528 25.7605 23.7491Z" fill="#3C3C3C"/>
<path d="M40.1919 55.3144C42.5252 51.3144 42.6914 49.8145 50.1919 42.8145C54.6535 38.6505 60.6919 34.3144 70.1918 24.3145C69.5252 21.4812 66.2919 16.8144 60.6919 16.8144C60.6919 13.8145 57.743 10.5001 51.243 7.99999C59.0763 3.33333 75.0919 -4.0856 80.6919 4.3144C86.2919 12.7144 80.6919 23.1478 77.1919 27.3145C64.592 42.3144 46.9919 55.3144 40.1919 55.3144Z" fill="#3C3C3C"/>
<path d="M48.1914 26.3146C53.6764 19.6934 61.6918 16.8653 66.1918 24.3146C62.6918 27.3146 60.0829 28.7657 56.5828 32.2657C53.5412 28.4805 48.1914 26.3146 48.1914 26.3146Z" fill="#3C3C3C"/>
<path d="M44.1918 43.8138C48.1914 38.8138 54.2847 34.6982 54.2847 34.6982C50.118 31.1982 46.0384 26.9251 38.6914 27.3138C31.3444 27.7026 28.1918 30.3138 26.1914 33.8138C26.1914 33.8138 38.6914 38.3138 44.1918 43.8138Z" fill="#3C3C3C"/>
<path d="M39.191 90.3144C34.191 82.6478 28.5919 63.1146 42.1919 46.3145C29.192 37.8145 22.692 35.3145 12.191 35.3145C17.6918 46.3145 15.491 54.0145 16.691 60.8145C17.891 67.6145 23.8585 76.8145 28.6918 82.3145C18.6922 74.3145 13.1918 71.8145 12.191 46.3145C7.69143 47.3145 6.19187 48.8145 4.69093 50.8145L5.19187 57.3145C3.5252 58.4812 -0.246305 61.4417 0.690939 65.8145C2.19127 72.8145 16.6905 90.3144 39.191 90.3144Z" fill="#3C3C3C"/>
<path d="M82.191 25.3145C71.1914 39.3146 57.6914 54.3146 39.191 58.8145C35.1914 67.8146 36.6914 87.8146 45.191 91.8145C52.9217 95.4526 61.6914 93.915 67.6919 90.3145C75.1914 85.8146 94.1914 56.8146 82.191 25.3145Z" fill="#3C3C3C"/>
<path d="M87.3706 32.7598C90.3606 32.5307 95.2479 32.9661 100.144 36.3711C102.633 38.1017 104.079 41.6544 104.633 45.873C105.185 50.066 104.837 54.7892 103.864 58.6934C102.885 62.6208 101.26 67.2085 99.3091 71.3105C97.351 75.4272 95.0921 78.9948 92.8706 80.9375C89.6784 83.7287 85.312 85.2009 78.9312 83.9561C90.4105 61.1033 89.0444 40.9929 87.3706 32.7598Z" fill="#3C3C3C" stroke="#3C3C3C"/>
<path d="M8.69126 33.3145C2.69102 31.8145 -2.20864 22.0144 2.19136 16.8144C7.69136 10.3145 11.5009 8.61832 19.0013 9.68976C25.0013 10.547 33.3237 6.09264 36.6913 4.31439C41.1041 1.98423 44.5163 5.99538 46.8495 7.66202C33.9393 10.3658 27.5856 18.0711 22.692 22.8145C22.7865 26.385 25.017 27.1285 23.192 32.5359C17.3115 32.0628 15.1913 31.3145 8.69126 33.3145Z" stroke="#3C3C3C"/>
<path d="M25.7605 23.7491C25.7605 23.7491 26.6392 25.5743 27.1123 27.7373C32.6128 24.7373 37.6917 23.3147 44.1917 24.8147C48.1913 20.8147 49.8267 17.4899 57.3263 16.9898C52.9327 9.75744 45.1525 11.0159 41.5772 12.3262C36.6778 14.1216 32.4521 19.1528 25.7605 23.7491Z" stroke="#3C3C3C"/>
<path d="M40.1919 55.3144C42.5252 51.3144 42.6914 49.8145 50.1919 42.8145C54.6535 38.6505 60.6919 34.3144 70.1918 24.3145C69.5252 21.4812 66.2919 16.8144 60.6919 16.8144C60.6919 13.8145 57.743 10.5001 51.243 7.99999C59.0763 3.33333 75.0919 -4.0856 80.6919 4.3144C86.2919 12.7144 80.6919 23.1478 77.1919 27.3145C64.592 42.3144 46.9919 55.3144 40.1919 55.3144Z" stroke="#3C3C3C"/>
<path d="M48.1914 26.3146C53.6764 19.6934 61.6918 16.8653 66.1918 24.3146C62.6918 27.3146 60.0829 28.7657 56.5828 32.2657C53.5412 28.4805 48.1914 26.3146 48.1914 26.3146Z" stroke="#3C3C3C"/>
<path d="M44.1918 43.8138C48.1914 38.8138 54.2847 34.6982 54.2847 34.6982C50.118 31.1982 46.0384 26.9251 38.6914 27.3138C31.3444 27.7026 28.1918 30.3138 26.1914 33.8138C26.1914 33.8138 38.6914 38.3138 44.1918 43.8138Z" stroke="#3C3C3C"/>
<path d="M39.191 90.3144C34.191 82.6478 28.5919 63.1146 42.1919 46.3145C29.192 37.8145 22.692 35.3145 12.191 35.3145C17.6918 46.3145 15.491 54.0145 16.691 60.8145C17.891 67.6145 23.8585 76.8145 28.6918 82.3145C18.6922 74.3145 13.1918 71.8145 12.191 46.3145C7.69143 47.3145 6.19187 48.8145 4.69093 50.8145L5.19187 57.3145C3.5252 58.4812 -0.246305 61.4417 0.690939 65.8145C2.19127 72.8145 16.6905 90.3144 39.191 90.3144Z" stroke="#3C3C3C"/>
<path d="M82.191 25.3145C71.1914 39.3146 57.6914 54.3146 39.191 58.8145C35.1914 67.8146 36.6914 87.8146 45.191 91.8145C52.9217 95.4526 61.6914 93.915 67.6919 90.3145C75.1914 85.8146 94.1914 56.8146 82.191 25.3145Z" stroke="#3C3C3C"/>
</svg>
